<svg xmlns="http://www.w3.org/2000/svg" height="800" width="1200" viewBox="-43.65555 -35.625 378.3481 213.75"><g transform="translate(-6.163 -10.1)"><radialGradient gradientUnits="userSpaceOnUse" gradientTransform="matrix(0 -1 2 0 -271.667 356.333)" r="230.009" cy="209.333" cx="147" id="a"><stop offset="0"/><stop offset=".575"/><stop offset=".598" stop-color="#7d7d7d"/><stop offset=".64" stop-color="#575757"/><stop offset=".751"/><stop offset="1"/></radialGradient><path d="M102.4 85.3c.2 21.4 18.8 28.6 19 28.7-.2.5-3 10.2-9.8 20.1-5.9 8.6-12 17.2-21.7 17.4-9.5.2-12.5-5.6-23.4-5.6-10.8 0-14.2 5.4-23.2 5.8-9.2.3-16.3-9.4-22.3-18C8.9 116.1-.4 84 12.1 62.4c6.2-10.8 17.3-17.6 29.3-17.7 9.1-.2 17.8 6.2 23.4 6.2 5.6 0 16.1-7.6 27.1-6.5 4.6.2 17.6 1.9 25.9 14-.7.4-15.5 9-15.4 26.9M84.6 32.7c4.9-6 8.3-14.3 7.4-22.6-7.1.3-15.7 4.7-20.9 10.7-4.6 5.3-8.6 13.8-7.5 21.9 7.9.6 16.1-4.1 21-10" fill="url(#a)"/><radialGradient gradientUnits="userSpaceOnUse" gradientTransform="matrix(0 -1 2 0 -271.667 356.333)" r="230.009" cy="209.333" cx="147" id="b"><stop offset="0"/><stop offset=".575"/><stop offset=".598" stop-color="#7d7d7d"/><stop offset=".64" stop-color="#575757"/><stop offset=".751"/><stop offset="1"/></radialGradient><path d="M190.8 150.1c-6.1 1.7-12.4 2.5-18.8 2.5-14.9 0-22.3-8.4-22.3-25.3V52.8h-12.9V39.3h13.6V21.7l17.9-7.3v25H189v13.5h-20.6v70.4c0 5.4.9 9.1 2.6 11.3 1.7 2.2 4.8 3.2 9.1 3.2 2.5 0 6-.5 10.7-1.4z" fill="url(#b)"/><radialGradient gradientUnits="userSpaceOnUse" gradientTransform="matrix(0 -1 2 0 -271.667 356.333)" r="230.009" cy="209.333" cx="147" id="c"><stop offset="0"/><stop offset=".575"/><stop offset=".598" stop-color="#7d7d7d"/><stop offset=".64" stop-color="#575757"/><stop offset=".751"/><stop offset="1"/></radialGradient><path d="M255.6 150.9h-22L193.1 39.3h19.8l24.5 72.6c.9 2.8 3.3 10.9 7.1 24.4l3.6-12.1 4-12.2 25.4-72.8h19.7z" fill="url(#c)"/></g></svg>